<?xml version="1.0" standalone="no"?><!DOCTYPE svg PUBLIC "-//W3C//DTD SVG 1.1//EN" "http://www.w3.org/Graphics/SVG/1.1/DTD/svg11.dtd"><svg t="1593936959959" class="icon" viewBox="0 0 1024 1024" version="1.1" xmlns="http://www.w3.org/2000/svg" p-id="17082" xmlns:xlink="http://www.w3.org/1999/xlink" width="200" height="200"><defs><style type="text/css"></style></defs><path d="M534.77 254.27c-21.19-23.14-50.13-34.87-86-34.87-32.25 0-56.67 8.71-72.6 25.88-28.29 30.5-24.49 80.91-21.14 125.38 2.94 38.86 5.71 75.56-13.59 83.94-6.27 2.72-12.75 4.1-19.26 4.1-24.77 0-48.17-19.8-63.42-36.41-17.62-19.16-28.79-38.74-28.9-38.93-3.22-5.69-10.22-8.04-16.21-5.44-6.01 2.6-9.06 9.31-7.09 15.56 0.39 1.28 10.09 31.71 31.37 62.46 29.2 42.21 66.23 64.53 107.06 64.53 9.83 0 19.99-1.3 30.2-3.86 27.46-6.86 46.33-21.83 57.7-45.76 9.38-19.74 12.07-42.79 14.45-63.13 5.11-43.92 9.75-60.51 38.41-60.51 25.35 0 54.25 32.55 63.24 45.07 3.11 4.35 8.61 6.31 13.76 4.9 5.17-1.41 8.91-5.89 9.38-11.21 0.29-3.4 6.76-83.54-37.36-131.7z" fill="#ED5564" p-id="17083"></path><path d="M376.18 258.07c15.93-17.18 40.34-25.88 72.6-25.88 35.87 0 64.81 11.73 86 34.86 30.96 33.8 37.01 83.32 37.76 111.05 0.62-21.87-1.14-83.86-37.76-123.82-21.19-23.14-50.13-34.87-86-34.87-32.25 0-56.67 8.71-72.6 25.88-20.16 21.74-24.02 53.6-23.36 86.21 0.63-28.03 5.83-54.54 23.36-73.43zM207.51 396.34a12.82 12.82 0 0 1 6.14-5.65c5.99-2.6 12.99-0.25 16.21 5.44 0.11 0.19 11.29 19.78 28.9 38.94 15.26 16.6 38.66 36.41 63.42 36.41 6.51 0 12.99-1.39 19.26-4.11 13.63-5.92 16.25-25.96 15.57-50.93-0.6 18.85-4.36 33.28-15.57 38.15-6.27 2.72-12.75 4.1-19.26 4.1-24.77 0-48.17-19.8-63.42-36.41-17.62-19.16-28.79-38.74-28.9-38.93-3.22-5.69-10.22-8.04-16.21-5.44-6.01 2.6-9.06 9.31-7.09 15.56 0.05 0.22 0.37 1.23 0.95 2.87z" fill="#FFFFFF" opacity=".2" p-id="17084"></path><path d="M798.33 728.34c-11.66-13.33-29.89-27.53-55.63-43.31v-79.91l12.73-153.59c0.08-0.87 0.06-1.75-0.04-2.61-2.66-21.57-21.21-44.08-50.92-61.76-28.59-17.03-62.84-26.79-93.97-26.79-21.32 0-40.51 4.43-57.08 13.17-28.06 14.81-49.35 31.95-63.24 50.97-12.6 17.21-19.6 36.52-20.8 57.37-2.15 37.19 14.36 73.75 27.63 103.13 9.38 20.75 19.06 42.2 16.12 52.68-13.18 47.02-48.88 97.79-49.23 98.29-2.88 4.08-3.15 9.47-0.64 13.8 2.51 4.32 7.3 6.8 12.28 6.32 16.59-1.59 32.67-2.4 47.81-2.4 77.65 0 120.78 20.94 152.27 36.21 19.19 9.31 35.75 17.36 53.65 17.36 16.29 0 33.4-2.44 46.93-6.68 20.37-6.38 32.61-16.55 36.37-30.21 3.58-13.02-1.21-27.16-14.24-42.04z" fill="#CCD1D9" p-id="17085"></path><path d="M742.69 450.47l-140.57 75.64v25.56l127.78 89.45s76.68-70.73 76.68-102.23-63.89-88.42-63.89-88.42z" fill="#434A54" p-id="17086"></path><path d="M784.23 474.43c-16.31-18.54-32.37-32.9-33.04-33.5a12.764 12.764 0 0 0-14.56-1.71l-77.03 41.45c-0.02 0.02-0.06 0.04-0.08 0.05l-63.46 34.15a12.777 12.777 0 0 0-6.72 11.25v25.56c0 4.18 2.04 8.08 5.45 10.46l127.8 89.46a12.72 12.72 0 0 0 7.32 2.31c3.13 0 6.23-1.15 8.67-3.39 0.8-0.74 19.86-18.37 39.24-40.22 17.84-20.12 41.56-49.42 41.56-71.41-0.01-16.49-11.5-37.58-35.15-64.46z m-43.54-8.36c5.99 5.71 15.3 14.94 24.5 25.43 11.57 13.17 20.12 25.23 24.75 34.61h-28.1l-38.32-50.81 17.17-9.23z m-59.7 125.2l29.75-39.6h17.95l-37.72 46.59-9.98-6.99z m-57.73-40.4c1.39 0.52 2.86 0.81 4.42 0.81h51.09l-18.74 24.94-36.77-25.75z m39.12-42.68l14.83 17.92h-48.13l33.3-17.92z m38.38-20.63l29.07 38.55h-19.47l-25.03-30.26 15.43-8.29z m-85.87 51.34v-5.15l1.48-0.79c-0.94 1.77-1.48 3.79-1.48 5.94 0 3.14 1.14 6.01 3.01 8.24l-3.01-2.12v-6.12z m143.92 54.3c-11.4 12.87-22.93 24.43-30.14 31.46l-16.72-11.7 49.61-61.29h27.95c-4.4 8.54-13.18 21.76-30.7 41.53z" fill="#E6E9ED" p-id="17087"></path><path d="M627.68 538.9c0 14.11-11.44 25.55-25.55 25.55-14.11 0-25.57-11.44-25.57-25.55s11.46-25.56 25.57-25.56c14.11-0.01 25.55 11.44 25.55 25.56z" fill="#434A54" p-id="17088"></path><path d="M742.69 685.03v35.64l27.74-17.1c-8.04-5.95-17.25-12.11-27.74-18.54z" opacity=".1" p-id="17089"></path></svg>