<?xml version="1.0" standalone="no"?><!DOCTYPE svg PUBLIC "-//W3C//DTD SVG 1.1//EN" "http://www.w3.org/Graphics/SVG/1.1/DTD/svg11.dtd"><svg t="1594121094468" class="icon" viewBox="0 0 1024 1024" version="1.1" xmlns="http://www.w3.org/2000/svg" p-id="2170" xmlns:xlink="http://www.w3.org/1999/xlink" width="200" height="200"><defs><style type="text/css"></style></defs><path d="M949.3504 794.0096l-227.328-227.371886a356.176457 356.176457 0 0 0 37.668571-159.700114c0-197.617371-160.768-358.4-358.4-358.4s-358.4 160.782629-358.4 358.4 160.768 358.4 358.4 358.4c60.854857 0 118.184229-15.286857 168.433372-42.144914l224.548571 222.500571c20.465371 20.48 47.733029 28.335543 76.770743 28.335543h0.555886c29.125486 0 56.554057-8.192 77.2096-28.8768 20.670171-20.655543 32.138971-45.041371 32.285257-74.181486a106.920229 106.920229 0 0 0-31.744-76.960914z m-248.4224-22.367086l71.8848-71.8848 23.215543 23.200915-71.767772 71.767771-23.332571-23.083886zM101.419886 406.9376c0-165.639314 134.261029-299.885714 299.885714-299.885714s299.885714 134.2464 299.885714 299.885714c0 165.653943-134.261029 299.885714-299.885714 299.885714s-299.885714-134.231771-299.885714-299.885714z m589.385143 210.929371l61.308342 61.2352-71.9872 71.972572-60.693942-60.035657a361.515886 361.515886 0 0 0 71.3728-73.172115z m216.634514 285.930058c-9.698743 9.684114-22.528 11.702857-36.1472 11.702857h-0.263314c-13.399771 0-25.965714-1.930971-35.401143-11.351772l-90.580115-89.219657 71.665372-71.504457 91.253028 91.2384c9.479314 9.479314 14.672457 21.123657 14.599315 34.640457-0.043886 13.604571-5.4272 24.7808-15.125943 34.494172z" fill="#1296db" p-id="2171"></path><path d="M369.722514 171.329829c-5.705143 0-11.3664 0.234057-16.969143 0.687542a14.628571 14.628571 0 1 0 2.399086 29.169372c4.798171-0.394971 9.669486-0.599771 14.570057-0.599772a14.628571 14.628571 0 1 0 0-29.257142zM284.715886 189.8496a204.726857 204.726857 0 0 0-119.018057 185.534171 14.628571 14.628571 0 1 0 29.257142 0 175.396571 175.396571 0 0 1 101.961143-158.954057 14.628571 14.628571 0 1 0-12.200228-26.580114z" fill="#1296db" p-id="2172"></path></svg>