<?xml version="1.0" standalone="no"?><!DOCTYPE svg PUBLIC "-//W3C//DTD SVG 1.1//EN" "http://www.w3.org/Graphics/SVG/1.1/DTD/svg11.dtd"><svg t="1593862782308" class="icon" viewBox="0 0 1024 1024" version="1.1" xmlns="http://www.w3.org/2000/svg" p-id="38059" xmlns:xlink="http://www.w3.org/1999/xlink" width="200" height="200"><defs><style type="text/css"></style></defs><path d="M332.8 109.8h459.5c26.3 0 47.5 21.3 47.5 47.5v617.9c0 26.3-21.3 47.5-47.5 47.5H332.8c-26.3 0-47.5-21.3-47.5-47.5V157.3c0-26.2 21.3-47.5 47.5-47.5z" fill="#D7DFEB" p-id="38060"></path><path d="M237.8 204.9h459.5c26.3 0 47.5 21.3 47.5 47.5v617.9c0 26.3-21.3 47.5-47.5 47.5H237.8c-26.3 0-47.5-21.3-47.5-47.5V252.4c-0.1-26.3 21.2-47.5 47.5-47.5z" fill="#FFFFFF" p-id="38061"></path><path d="M332.8 86c-39.1 0-71.3 32.2-71.3 71.3v23.8h-23.8c-39.1 0-71.3 32.2-71.3 71.3v617.9c0 39.1 32.2 71.3 71.3 71.3h459.5c39.1 0 71.3-32.2 71.3-71.3v-23.8h23.8c39.1 0 71.3-32.2 71.3-71.3V157.3c0-39.1-32.2-71.3-71.3-71.3H332.8z m0 47.6h459.5c13.6 0 23.8 10.2 23.8 23.8v617.9c0 13.6-10.2 23.8-23.8 23.8h-47.5c-13.1 0-23.8 10.6-23.8 23.8v47.5c0 13.6-10.2 23.8-23.8 23.8H237.8c-13.6 0-23.8-10.2-23.8-23.8v-618c0-13.6 10.2-23.8 23.8-23.8h47.5c13.1 0 23.8-10.6 23.8-23.8v-47.5c0-13.6 10.2-23.7 23.7-23.7z m31.7 47.5c-13.1-0.2-23.9 10.3-24.1 23.4s10.3 23.9 23.4 24.1h333.4c13.6 0 23.8 10.2 23.8 23.8v491.2c-0.2 13.1 10.3 23.9 23.4 24.1s23.9-10.3 24.1-23.4V252.4c0-39.1-32.2-71.3-71.3-71.3H364.5z" fill="#444852" p-id="38062"></path><path d="M333.2 577.2c-13.1-0.2-23.9 10.3-24.1 23.4-0.2 13.1 10.3 23.9 23.4 24.1h269.4c13.1 0.2 23.9-10.3 24.1-23.4 0.2-13.1-10.3-23.9-23.4-24.1H333.2zM333.2 672.3c-13.1-0.2-23.9 10.3-24.1 23.4-0.2 13.1 10.3 23.9 23.4 24.1H491c13.1 0.2 23.9-10.3 24.1-23.4 0.2-13.1-10.3-23.9-23.4-24.1H333.2z m237 0c-13.1-0.2-23.9 10.3-24.1 23.4s10.3 23.9 23.4 24.1h32.4c13.1 0.2 23.9-10.3 24.1-23.4 0.2-13.1-10.3-23.9-23.4-24.1h-32.4zM333.2 767.3c-13.1-0.2-23.9 10.3-24.1 23.4-0.2 13.1 10.3 23.9 23.4 24.1h206c13.1 0.2 23.9-10.3 24.1-23.4 0.2-13.1-10.3-23.9-23.4-24.1h-206z" fill="#D7DFEB" p-id="38063"></path></svg>