<?xml version="1.0" standalone="no"?><!DOCTYPE svg PUBLIC "-//W3C//DTD SVG 1.1//EN" "http://www.w3.org/Graphics/SVG/1.1/DTD/svg11.dtd"><svg t="1593956362862" class="icon" viewBox="0 0 1024 1024" version="1.1" xmlns="http://www.w3.org/2000/svg" p-id="8035" xmlns:xlink="http://www.w3.org/1999/xlink" width="200" height="200"><defs><style type="text/css"></style></defs><path d="M436.2 921.5c-6.3 1.2-12.5 2.1-18.6 2.3 6.2 0 12.4-1.2 18.6-2.3z" fill="#E60012" p-id="8036"></path><path d="M603.6 675.6l-34.4 33.9c-13.9 13.7-37.4 8-43.5-10.6l-13.1-40c-14.5-44.4-71.3-57.2-103.4-23.2l-28.4 30c-13.2 13.9-36.4 9.5-43.5-8.3l-21.7-54.1c-15.3-38-62.7-50.8-95-25.7l-67 52.1-4.4 19.2c-9.2 40.2 4.5 82.3 35.6 109.4l123 107c1.9-0.5 102-26.9 176.7 44.2l-40.1 10.7c0.6-0.2 1.3-0.1 1.9-0.3l203-55.2c39.8-10.8 70.5-42.7 79.7-83l1.5-6.7-25-75.1c-14.6-43.2-69.4-56.4-101.9-24.3z" fill="#FDBA3E" p-id="8037"></path><path d="M443.3 920.6l1-0.3c-2.7 0.7-5.4 0.7-8.1 1.2 2.4-0.5 4.7-0.3 7.1-0.9z" fill="#E60012" p-id="8038"></path><path d="M417.6 923.8c6.1-0.2 12.3-1.2 18.6-2.3 2.7-0.5 5.4-0.5 8.1-1.2l40.1-10.7c-74.7-71.1-174.8-44.7-176.7-44.2l35.7 31.1c20.8 18.1 47.3 27.5 74.2 27.3z" fill="#FF7C20" p-id="8039"></path><path d="M720.7 575.9c-70.6 0-153.8-9.6-239.3-27.8-103.8-22.1-199.3-54.4-269.1-91-6.1-3.2-11.4-6.4-17-9.6l-41.8 182.4 67-52.1c32.3-25.2 79.8-12.3 95 25.7l21.7 54.1c7.2 17.8 30.4 22.2 43.5 8.3l28.4-30c32.1-34 88.9-21.2 103.4 23.2l13.1 40c6.1 18.6 29.6 24.3 43.5 10.6l34.4-33.9c32.5-32.1 87.4-18.9 101.8 24.4l25 75.1 46.2-201.8c-4.2 0.4-8 0.9-12.4 1.2-13.8 0.7-28.3 1.2-43.4 1.2z" fill="#FF5069" p-id="8040"></path><path d="M824.3 365.1l-16.8 73.4c28.3 18 47.3 33 45.5 41.5-1.8 8.7-25.8 14.6-59.5 19.5l-16.9 73.7c87.5-7.6 137.1-33.8 146.5-78.3 10.5-49.1-33.4-93.2-98.8-129.8zM169 335.7c4.2-6.9 23.3-14.9 56.4-20l16.9-73.8C157.1 250 108.8 276 99.4 319.8c-9.2 43.3 23.3 86.2 95.8 127.7l16.6-72.7c-27.5-17.6-41.6-32-42.8-39.1z" fill="#00A9DC" p-id="8041"></path><path d="M750.8 184.6l-361.7-82.8c-60.2-13.8-120.2 23.9-134 84.1l-43.3 188.9c49.2 31.4 141.8 73.1 284.4 103.4 138.8 29.5 238.7 29.9 297.2 21.4l30.8-134.5 10.6-46.5c13.9-60.2-23.7-120.2-84-134z" fill="#FF5069" p-id="8042"></path><path d="M496.2 478.2C353.6 447.9 261 406.1 211.8 374.8l-16.6 72.7c5.6 3.2 10.9 6.4 17 9.6 69.8 36.6 165.3 68.9 269.1 91 85.5 18.2 168.7 27.8 239.3 27.8 15.1 0 29.6-0.4 43.5-1.3 4.4-0.3 8.2-0.8 12.4-1.2l16.9-73.7c-58.5 8.4-158.4 8-297.2-21.5z" fill="#8F3694" p-id="8043"></path><path d="M132.9 414.2m-29.1 0a29.1 29.1 0 1 0 58.2 0 29.1 29.1 0 1 0-58.2 0Z" fill="#FDBA3E" p-id="8044"></path><path d="M698.1 482.4m-47.6 0a47.6 47.6 0 1 0 95.2 0 47.6 47.6 0 1 0-95.2 0Z" fill="#FDBA3E" p-id="8045"></path></svg>