<?xml version="1.0" standalone="no"?><!DOCTYPE svg PUBLIC "-//W3C//DTD SVG 1.1//EN" "http://www.w3.org/Graphics/SVG/1.1/DTD/svg11.dtd"><svg t="1593956410264" class="icon" viewBox="0 0 1024 1024" version="1.1" xmlns="http://www.w3.org/2000/svg" p-id="8937" xmlns:xlink="http://www.w3.org/1999/xlink" width="200" height="200"><defs><style type="text/css"></style></defs><path d="M297.444 900.322c-15.456 0-27.986-12.532-27.986-27.986V214.972a27.986 27.986 0 0 1 19.5-26.668L876.654 1.318a27.982 27.982 0 0 1 36.47 26.668v713.342c0 15.454-12.53 27.986-27.986 27.986-15.456 0-27.986-12.532-27.986-27.986V66.258l-531.724 169.178v636.9c0.002 15.458-12.528 27.986-27.984 27.986z" fill="#2D527C" p-id="8938"></path><path d="M297.444 214.972v223.252l587.696-186.986V27.986z" fill="#CEE8FA" p-id="8939"></path><path d="M297.444 466.21c-5.868 0-11.664-1.844-16.52-5.396a27.978 27.978 0 0 1-11.468-22.59V214.972a27.986 27.986 0 0 1 19.5-26.668L876.654 1.318a27.986 27.986 0 0 1 36.472 26.668v223.25a27.986 27.986 0 0 1-19.5 26.668l-587.696 186.986c-2.78 0.886-5.64 1.32-8.486 1.32z m27.986-230.776v164.516l531.724-169.178V66.258l-531.724 169.176zM410.322 881.746c-15.456 0-27.986-12.532-27.986-27.986V524.462c0-15.454 12.53-27.986 27.986-27.986s27.986 12.532 27.986 27.986V853.76c-0.002 15.456-12.53 27.986-27.986 27.986zM772.26 632.948c-15.456 0-27.986-12.532-27.986-27.986V384.52c0-15.454 12.53-27.986 27.986-27.986s27.986 12.532 27.986 27.986v220.442c-0.002 15.454-12.53 27.986-27.986 27.986z" fill="#2D527C" p-id="8940"></path><path d="M274.594 860.278m-135.73 0a135.73 135.73 0 1 0 271.46 0 135.73 135.73 0 1 0-271.46 0Z" fill="#CEE8FA" p-id="8941"></path><path d="M274.59 1024c-90.274 0-163.716-73.442-163.716-163.716s73.442-163.716 163.716-163.716 163.716 73.442 163.716 163.716S364.864 1024 274.59 1024z m0-271.46c-59.41 0-107.744 48.334-107.744 107.744s48.334 107.744 107.744 107.744 107.744-48.334 107.744-107.744-48.332-107.744-107.744-107.744zM749.408 903.668c-90.274 0-163.716-73.442-163.716-163.716s73.442-163.716 163.716-163.716c8.874 0 17.782 0.716 26.472 2.132 15.254 2.482 25.61 16.862 23.128 32.12-2.482 15.258-16.858 25.626-32.12 23.128a109.152 109.152 0 0 0-17.482-1.404c-59.41 0-107.744 48.334-107.744 107.744s48.334 107.744 107.744 107.744 107.744-48.334 107.744-107.744c0-15.454 12.53-27.986 27.986-27.986 15.456 0 27.986 12.532 27.986 27.986 0.002 90.268-73.44 163.712-163.714 163.712z" fill="#2D527C" p-id="8942"></path></svg>