<?xml version="1.0" standalone="no"?><!DOCTYPE svg PUBLIC "-//W3C//DTD SVG 1.1//EN" "http://www.w3.org/Graphics/SVG/1.1/DTD/svg11.dtd"><svg t="1593956322195" class="icon" viewBox="0 0 1024 1024" version="1.1" xmlns="http://www.w3.org/2000/svg" p-id="6651" xmlns:xlink="http://www.w3.org/1999/xlink" width="200" height="200"><defs><style type="text/css"></style></defs><path d="M511.313624 285.315459m-237.558173 0a237.558174 237.558174 0 1 0 475.116347 0 237.558174 237.558174 0 1 0-475.116347 0Z" fill="#E9EAEB" p-id="6652"></path><path d="M669.68574 855.368376H653.862979v-15.822761a47.540535 47.540535 0 0 0-47.540535-47.540535h-190.017639A47.540535 47.540535 0 0 0 368.47527 839.545615v15.822761h-15.461511a47.540535 47.540535 0 0 0-47.540535 47.757285v47.540535h411.825301V903.125661a47.540535 47.540535 0 0 0-47.612785-47.757285z" fill="#A3D4FF" p-id="6653"></path><path d="M669.68574 855.368376h-31.645523v-15.822761a31.717773 31.717773 0 0 0-31.645523-31.645523H416.304805a31.717773 31.717773 0 0 0-31.645523 31.645523v15.822761h-31.645523v-15.822761a63.435546 63.435546 0 0 1 63.363296-63.363297h190.017639a63.435546 63.435546 0 0 1 63.363297 63.363297z" fill="#2A5082" p-id="6654"></path><path d="M733.049037 966.272208H289.650462V903.125661a63.435546 63.435546 0 0 1 63.363297-63.363296h142.477104v31.645523H353.013759a31.717773 31.717773 0 0 0-31.717774 31.717773v31.645524h380.035279V903.125661a31.717773 31.717773 0 0 0-31.645524-31.645523h-63.291046v-31.934523h63.363297a63.435546 63.435546 0 0 1 63.363296 63.363296z" fill="#2A5082" p-id="6655"></path><path d="M527.208636 839.545615h31.645523v31.645523h-31.645523zM527.208636 396.14704h31.645523v380.035278h-31.645523zM463.84534 396.14704h31.645523v380.035278H463.84534zM717.226275 649.527976h-31.645523v-34.824526l111.987582-272.093699 29.333522 12.065759-109.675581 266.313695v28.538771zM986.429972 649.527976h-31.645523v-28.105271l-125.209341-266.024695 28.683271-13.51076 128.171593 272.45495v35.185776z" fill="#2A5082" p-id="6656"></path><path d="M669.68574 649.527976v31.645523c30.056022 57.077542 94.719819 95.00882 166.175122 95.008819s136.2636-37.931278 166.175122-95.008819V649.527976z" fill="#E9EAEB" p-id="6657"></path><path d="M836.005362 792.07733c-76.440556 0-147.173358-40.60453-180.625132-103.462076l-1.806251-3.468002v-51.442038h364.212516v51.442038l-1.806251 3.468002c-32.801524 62.785296-103.534326 103.462076-179.974882 103.462076z m-150.49686-114.877584c28.394271 50.575037 86.700064 83.232061 150.42461 83.232061s122.030339-32.512524 150.42461-83.232061v-11.849009H685.508502zM67.91505 649.527976H36.269527v-34.824526l112.059832-272.093699 29.261271 12.065759L67.91505 620.989205v28.538771zM337.118747 649.527976h-31.645523v-28.105271L180.263882 355.39801l28.683271-13.51076 128.171594 272.45495v35.185776z" fill="#2A5082" p-id="6658"></path><path d="M20.446765 649.527976v31.645523c30.056022 57.077542 94.719819 95.00882 166.175122 95.008819s136.2636-37.931278 166.175121-95.008819V649.527976z" fill="#E9EAEB" p-id="6659"></path><path d="M186.694137 792.07733c-76.440556 0-147.173358-40.60453-180.625133-103.462076l-1.806251-3.468002v-51.442038H368.47527v51.442038l-1.806251 3.468002c-32.729274 62.785296-103.534326 103.462076-179.974882 103.462076zM36.125026 677.199746c28.394271 50.575037 86.700064 83.232061 150.424611 83.232061s122.030339-32.512524 150.42461-83.232061v-11.849009H36.125026zM578.000423 145.945107h-31.790023a34.824526 34.824526 0 1 0-69.649051 0h-31.717773a66.542299 66.542299 0 0 1 133.156847 0zM226.287166 934.554434h79.186058v31.645524H226.287166zM162.923869 934.554434h31.645524v31.645524h-31.645524zM717.226275 934.554434h47.540535v31.645524h-47.540535zM796.412333 934.554434h31.645523v31.645524h-31.645523zM859.77563 934.554434h31.645523v31.645524H859.77563z" fill="#2A5082" p-id="6660"></path><path d="M875.598391 253.669936c-31.645523 0-79.475058 29.767022-158.372116-15.822762-90.890567-52.236788-151.725111-68.4208-205.8404-12.932759-54.11529-55.415791-115.022084-39.304029-205.840401 12.932759-79.475058 45.517533-126.654343 15.822762-158.372116 15.822762a47.540535 47.540535 0 1 0 0 95.008819c28.900021 0 45.011783-2.023001 95.008819-15.822761 31.501023-8.742256 93.925069-31.645523 142.549355-31.645523s79.475058 47.540535 126.654343 47.540534 77.885557-47.540535 126.654342-47.540534 110.976081 22.975517 142.549355 31.645523c49.997037 13.79976 66.253299 15.822762 95.008819 15.822761a47.540535 47.540535 0 1 0 0-95.008819z" fill="#FFFFFF" p-id="6661"></path><path d="M875.598391 364.501517c-30.417272 0-48.046285-2.239752-99.199322-16.400762-6.574755-1.806251-14.450011-4.190503-23.120017-7.225005-33.162774-10.187257-78.680308-24.203768-115.166585-24.203768-20.157765 0-37.570028 10.548508-56.066041 21.675016-20.952515 12.716009-42.627531 25.793269-70.660551 25.793269S461.677838 351.352007 440.725323 338.708248c-18.423763-11.198758-36.125026-21.675016-56.066041-21.675016-36.486277 0-82.00381 14.01651-115.166585 24.203768-8.742256 2.673252-16.617512 5.129754-23.120017 7.225005-51.153037 14.450011-68.8543 16.400762-99.199322 16.400762a63.363296 63.363296 0 1 1 0-126.654343 151.725111 151.725111 0 0 1 29.478021 4.118253c29.550272 6.069004 66.325549 13.58301 120.946589-17.773513 87.350314-50.575037 154.542863-71.238552 213.787907-20.880265 59.245043-50.575037 126.365343-29.333521 213.787906 20.880265 54.62104 31.428773 91.396317 23.842517 120.946589 17.773513a151.725111 151.725111 0 0 1 29.478021-4.118253 63.363296 63.363296 0 1 1 0 126.654343z m-237.558174-79.475058c41.25478 0 89.373315 14.450011 124.486841 25.576518 8.453256 2.601002 15.967262 4.913004 22.253017 6.647005 47.974035 13.29401 63.218796 15.244761 90.818316 15.244762a31.645523 31.645523 0 0 0 0-63.363297 128.966344 128.966344 0 0 0-23.192267 3.468003c-31.067523 6.358005-78.102307 15.967262-143.127355-21.675016-96.670571-55.632541-143.777605-59.534044-186.621886-15.606012l-11.343259 11.632259-11.343258-11.632259c-42.844281-43.928032-89.951316-39.954279-186.621886 15.606012-65.025048 37.353277-111.987582 27.74402-143.127355 21.675016a128.966344 128.966344 0 0 0-23.192267-3.468003 31.645523 31.645523 0 0 0 0 63.363297c27.52727 0 42.844281-2.023001 90.818316-15.244762 6.285755-1.734001 13.87201-4.046003 22.253017-6.647005 35.113526-10.837508 83.232061-25.576519 124.486841-25.576518 28.900021 0 52.092288 13.94426 72.250053 26.299019 18.062513 10.909758 35.041276 21.241516 54.259789 21.241516s36.125026-10.331758 54.25979-21.241516c20.591265-12.065759 43.711282-26.010019 72.683553-26.010019z" fill="#2A5082" p-id="6662"></path></svg>