<?xml version="1.0" standalone="no"?><!DOCTYPE svg PUBLIC "-//W3C//DTD SVG 1.1//EN" "http://www.w3.org/Graphics/SVG/1.1/DTD/svg11.dtd"><svg t="1593956343554" class="icon" viewBox="0 0 1024 1024" version="1.1" xmlns="http://www.w3.org/2000/svg" p-id="7500" xmlns:xlink="http://www.w3.org/1999/xlink" width="200" height="200"><defs><style type="text/css"></style></defs><path d="M196.3 497.3c14.7 0 26.6-11.9 26.6-26.6 0-14.6-11.9-26.6-26.6-26.6-14.7 0-26.6 11.9-26.6 26.6 0 14.7 11.9 26.6 26.6 26.6zM312.1 675.5h-56.5c-32 0-39.3-0.8-39.3-32.7V529.2l-0.1-1.9h-0.2c-1.3-10.8-10.4-19.1-21.5-19.1-11 0-20.1 8.2-21.5 19.1h-0.3V656c0 56.5 26.3 63.1 82.8 63.1H312c12 0 21.8-9.8 21.8-21.8 0.1-12.1-9.7-21.8-21.7-21.8z" fill="#6B400D" p-id="7501"></path><path d="M641.7 224.9H170.3c-61.6 0-105.1 43.5-105.1 105.1v370.4c0 61.6 43.5 111.7 105.1 111.7h471.5c61.6 0 105.1-50.1 105.1-111.7V330c-0.1-61.6-43.6-105.1-105.2-105.1z m61.8 475.5c0 37.7-24.1 68.3-61.7 68.3H170.3c-37.7 0-61.7-30.7-61.7-68.3V330c0-37.7 24.1-61.7 61.7-61.7h471.5c37.7 0 61.7 24.1 61.7 61.7v370.4z" fill="#6B400D" p-id="7502"></path><path d="M905.2 314.7c-12.8 0-22.7 2-32 6.6l-126.5 87.5v212.8L872.9 709c11.9 5.8 25.3 6.7 32.2 6.7 36.6 0 54.6-16.4 54.6-41.9V356.6c0.1-25.4-17.8-41.9-54.5-41.9z m12.6 343.6c0 8.5-8.9 14.2-17.8 14.2-3.6 0-5.3 0-8.9-1.4l-144.4-96V455.3l144.4-96c1.8-1.4 5.3-1.4 8.9-1.4 8.9 0 17.8 5.7 17.8 14.2v286.2z" fill="#6B400D" p-id="7503"></path><path d="M900.1 357.9c-3.6 0-7.1 0-8.9 1.4l-144.4 96V575l144.4 96c3.6 1.4 5.3 1.4 8.9 1.4 8.9 0 17.8-5.7 17.8-14.2V372.1c-0.1-8.5-8.9-14.2-17.8-14.2z" fill="#FFD524" p-id="7504"></path></svg>