<?xml version="1.0" standalone="no"?><!DOCTYPE svg PUBLIC "-//W3C//DTD SVG 1.1//EN" "http://www.w3.org/Graphics/SVG/1.1/DTD/svg11.dtd"><svg t="1593956236050" class="icon" viewBox="0 0 1024 1024" version="1.1" xmlns="http://www.w3.org/2000/svg" p-id="5472" xmlns:xlink="http://www.w3.org/1999/xlink" width="200" height="200"><defs><style type="text/css"></style></defs><path d="M896 170.7H128c-23.6 0-42.7 19.1-42.7 42.7v597.3c0 23.6 19.1 42.7 42.7 42.7h768c23.6 0 42.7-19.1 42.7-42.7V213.3c0-23.5-19.1-42.6-42.7-42.6zM633.5 534.3l-89 89c-8.7 8.7-20.2 13.5-32.5 13.5s-23.8-4.8-32.5-13.5l-89-89c-16.4-16.3-25.4-38-25.5-61.2 0-23.2 9-45 25.4-61.4s38.2-25.4 61.3-25.4c22.7 0 44.1 8.7 60.3 24.5 16.3-15.8 37.7-24.5 60.4-24.5 23.2 0 44.9 9 61.3 25.5 16.4 16.4 25.4 38.2 25.4 61.4-0.1 23-9.2 44.8-25.6 61.1z" fill="#009F72" p-id="5473"></path><path d="M810.7 768H213.3c-23.6 0-42.7-19.1-42.7-42.7s19.1-42.7 42.7-42.7h597.3c23.6 0 42.7 19.1 42.7 42.7S834.2 768 810.7 768zM421.5 442.8c16.7-16.7 43.7-16.7 60.3 0l28.8 28.8c0.8 0.8 2.1 0.8 2.8 0l28.8-28.8c16.7-16.7 43.7-16.7 60.3 0 16.7 16.7 16.7 43.7 0 60.3l-89.1 89.1c-0.8 0.8-2 0.8-2.8 0l-89.1-89.1c-16.7-16.6-16.7-43.6 0-60.3zM810.7 341.3H213.3c-23.6 0-42.7-19.1-42.7-42.7s19.1-42.7 42.7-42.7h597.3c23.6 0 42.7 19.1 42.7 42.7s-19.1 42.7-42.6 42.7z" fill="#F9DB88" p-id="5474"></path></svg>